<mxfile host="app.diagrams.net" modified="2021-04-27T10:06:56.476Z" agent="5.0 (X11)" etag="TUBVpLC6voxauH1M6YHb" version="14.5.3" type="github">
  <diagram name="SignIn from CDC v6" id="cgOO9hKr6s6Ct5GbvhBF">
    <mxGraphModel dx="1662" dy="831" grid="1" gridSize="10" guides="1" tooltips="1" connect="1" arrows="1" fold="1" page="1" pageScale="1" pageWidth="827" pageHeight="1169" math="0" shadow="0">
      <root>
        <mxCell id="a5XRInmC_ehQdrehasMf-0" />
        <mxCell id="a5XRInmC_ehQdrehasMf-1" parent="a5XRInmC_ehQdrehasMf-0" />
        <mxCell id="a5XRInmC_ehQdrehasMf-2" value="SAP Hybris" style="shape=umlLifeline;perimeter=lifelinePerimeter;whiteSpace=wrap;html=1;container=1;collapsible=0;recursiveResize=0;outlineConnect=0;rounded=1;shadow=0;comic=0;labelBackgroundColor=none;strokeWidth=1;fontFamily=Verdana;fontSize=12;align=center;" parent="a5XRInmC_ehQdrehasMf-1" vertex="1">
          <mxGeometry x="323" y="80" width="110" height="930" as="geometry" />
        </mxCell>
        <mxCell id="a5XRInmC_ehQdrehasMf-3" value="" style="html=1;points=[];perimeter=orthogonalPerimeter;rounded=0;shadow=0;comic=0;labelBackgroundColor=none;strokeWidth=1;fontFamily=Verdana;fontSize=12;align=center;" parent="a5XRInmC_ehQdrehasMf-2" vertex="1">
          <mxGeometry x="49" y="100" width="10" height="530" as="geometry" />
        </mxCell>
        <mxCell id="a5XRInmC_ehQdrehasMf-4" value="" style="html=1;points=[];perimeter=orthogonalPerimeter;rounded=0;shadow=0;comic=0;labelBackgroundColor=none;strokeWidth=1;fontFamily=Verdana;fontSize=12;align=center;" parent="a5XRInmC_ehQdrehasMf-2" vertex="1">
          <mxGeometry x="54" y="750" width="10" height="50" as="geometry" />
        </mxCell>
        <mxCell id="a5XRInmC_ehQdrehasMf-5" value="SAP CDC" style="shape=umlLifeline;perimeter=lifelinePerimeter;whiteSpace=wrap;html=1;container=1;collapsible=0;recursiveResize=0;outlineConnect=0;rounded=1;shadow=0;comic=0;labelBackgroundColor=none;strokeWidth=1;fontFamily=Verdana;fontSize=12;align=center;" parent="a5XRInmC_ehQdrehasMf-1" vertex="1">
          <mxGeometry x="503" y="80" width="100" height="920" as="geometry" />
        </mxCell>
        <mxCell id="a5XRInmC_ehQdrehasMf-6" value="" style="html=1;points=[];perimeter=orthogonalPerimeter;" parent="a5XRInmC_ehQdrehasMf-5" vertex="1">
          <mxGeometry x="44" y="100" width="10" height="730" as="geometry" />
        </mxCell>
        <mxCell id="a5XRInmC_ehQdrehasMf-9" value="ATES" style="shape=umlLifeline;perimeter=lifelinePerimeter;whiteSpace=wrap;html=1;container=1;collapsible=0;recursiveResize=0;outlineConnect=0;rounded=1;shadow=0;comic=0;labelBackgroundColor=none;strokeWidth=1;fontFamily=Verdana;fontSize=12;align=center;" parent="a5XRInmC_ehQdrehasMf-1" vertex="1">
          <mxGeometry x="926" y="81" width="100" height="279" as="geometry" />
        </mxCell>
        <mxCell id="vFgykMLxOgXp3sifyeLw-1" value="" style="html=1;points=[];perimeter=orthogonalPerimeter;rounded=0;shadow=0;comic=0;labelBackgroundColor=none;strokeWidth=1;fontFamily=Verdana;fontSize=12;align=center;" parent="a5XRInmC_ehQdrehasMf-9" vertex="1">
          <mxGeometry x="45" y="239" width="10" height="40" as="geometry" />
        </mxCell>
        <mxCell id="a5XRInmC_ehQdrehasMf-10" value="Log In" style="html=1;verticalAlign=bottom;endArrow=block;entryX=0;entryY=0;labelBackgroundColor=none;fontFamily=Verdana;fontSize=12;edgeStyle=elbowEdgeStyle;elbow=vertical;" parent="a5XRInmC_ehQdrehasMf-1" target="a5XRInmC_ehQdrehasMf-3" edge="1">
          <mxGeometry relative="1" as="geometry">
            <mxPoint x="250" y="180" as="sourcePoint" />
          </mxGeometry>
        </mxCell>
        <mxCell id="a5XRInmC_ehQdrehasMf-12" value="Client" style="shape=umlLifeline;participant=umlActor;perimeter=lifelinePerimeter;whiteSpace=wrap;html=1;container=1;collapsible=0;recursiveResize=0;verticalAlign=top;spacingTop=36;outlineConnect=0;size=50;" parent="a5XRInmC_ehQdrehasMf-1" vertex="1">
          <mxGeometry x="110" y="80" width="40" height="520" as="geometry" />
        </mxCell>
        <mxCell id="a5XRInmC_ehQdrehasMf-13" value="" style="html=1;points=[];perimeter=orthogonalPerimeter;" parent="a5XRInmC_ehQdrehasMf-12" vertex="1">
          <mxGeometry x="15" y="80" width="10" height="380" as="geometry" />
        </mxCell>
        <mxCell id="a5XRInmC_ehQdrehasMf-15" value="Authenticated" style="html=1;verticalAlign=bottom;endArrow=open;dashed=1;endSize=8;labelBackgroundColor=none;fontFamily=Verdana;fontSize=12;edgeStyle=elbowEdgeStyle;elbow=vertical;" parent="a5XRInmC_ehQdrehasMf-1" edge="1">
          <mxGeometry x="0.0244" relative="1" as="geometry">
            <mxPoint x="383" y="580" as="targetPoint" />
            <Array as="points">
              <mxPoint x="492" y="580" />
              <mxPoint x="522" y="580" />
            </Array>
            <mxPoint x="547" y="580" as="sourcePoint" />
            <mxPoint as="offset" />
          </mxGeometry>
        </mxCell>
        <mxCell id="a5XRInmC_ehQdrehasMf-16" value="/oauth/token?grant_type=password" style="edgeStyle=orthogonalEdgeStyle;rounded=0;orthogonalLoop=1;jettySize=auto;html=1;entryX=-0.32;entryY=0.155;entryDx=0;entryDy=0;entryPerimeter=0;exitX=0.9;exitY=0.183;exitDx=0;exitDy=0;exitPerimeter=0;" parent="a5XRInmC_ehQdrehasMf-1" edge="1" source="a5XRInmC_ehQdrehasMf-17">
          <mxGeometry x="0.3643" y="11" relative="1" as="geometry">
            <Array as="points">
              <mxPoint x="388" y="311" />
            </Array>
            <mxPoint as="offset" />
            <mxPoint x="785.8000000000002" y="311.4" as="targetPoint" />
            <mxPoint x="563" y="311.4" as="sourcePoint" />
          </mxGeometry>
        </mxCell>
        <mxCell id="a5XRInmC_ehQdrehasMf-17" value="" style="html=1;points=[];perimeter=orthogonalPerimeter;rounded=0;shadow=0;comic=0;labelBackgroundColor=none;strokeWidth=1;fontFamily=Verdana;fontSize=12;align=center;" parent="a5XRInmC_ehQdrehasMf-1" vertex="1">
          <mxGeometry x="379" y="310" width="10" height="50" as="geometry" />
        </mxCell>
        <mxCell id="a5XRInmC_ehQdrehasMf-19" value="Access&amp;amp;Refresh Tokens" style="html=1;verticalAlign=bottom;endArrow=open;dashed=1;endSize=8;labelBackgroundColor=none;fontFamily=Helvetica;fontSize=11;edgeStyle=elbowEdgeStyle;elbow=vertical;" parent="a5XRInmC_ehQdrehasMf-1" edge="1" target="a5XRInmC_ehQdrehasMf-17">
          <mxGeometry x="-0.3552" y="21" relative="1" as="geometry">
            <mxPoint x="563" y="359" as="targetPoint" />
            <Array as="points">
              <mxPoint x="662" y="359" />
              <mxPoint x="692" y="359" />
            </Array>
            <mxPoint x="790" y="359" as="sourcePoint" />
            <mxPoint as="offset" />
          </mxGeometry>
        </mxCell>
        <mxCell id="a5XRInmC_ehQdrehasMf-20" value="SAP Backend" style="shape=umlLifeline;perimeter=lifelinePerimeter;whiteSpace=wrap;html=1;container=1;collapsible=0;recursiveResize=0;outlineConnect=0;rounded=1;shadow=0;comic=0;labelBackgroundColor=none;strokeWidth=1;fontFamily=Verdana;fontSize=12;align=center;gradientColor=#ffffff;" parent="a5XRInmC_ehQdrehasMf-1" vertex="1">
          <mxGeometry x="1083" y="80" width="100" height="900" as="geometry" />
        </mxCell>
        <mxCell id="a5XRInmC_ehQdrehasMf-21" value="" style="html=1;points=[];perimeter=orthogonalPerimeter;rounded=0;shadow=0;comic=0;labelBackgroundColor=none;strokeWidth=1;fontFamily=Verdana;fontSize=12;align=center;" parent="a5XRInmC_ehQdrehasMf-1" vertex="1">
          <mxGeometry x="1127" y="833" width="10" height="56" as="geometry" />
        </mxCell>
        <mxCell id="a5XRInmC_ehQdrehasMf-22" value="Get current Products" style="edgeStyle=orthogonalEdgeStyle;rounded=0;orthogonalLoop=1;jettySize=auto;html=1;fontSize=12;" parent="a5XRInmC_ehQdrehasMf-1" edge="1">
          <mxGeometry relative="1" as="geometry">
            <mxPoint x="393" y="836" as="sourcePoint" />
            <mxPoint x="1122" y="836" as="targetPoint" />
          </mxGeometry>
        </mxCell>
        <mxCell id="a5XRInmC_ehQdrehasMf-23" value="Customer Products" style="html=1;verticalAlign=bottom;endArrow=open;dashed=1;endSize=8;labelBackgroundColor=none;fontFamily=Verdana;fontSize=12;edgeStyle=elbowEdgeStyle;elbow=vertical;" parent="a5XRInmC_ehQdrehasMf-1" edge="1">
          <mxGeometry x="-0.0372" y="18" relative="1" as="geometry">
            <mxPoint x="389" y="874" as="targetPoint" />
            <Array as="points" />
            <mxPoint x="1120" y="874" as="sourcePoint" />
            <mxPoint as="offset" />
          </mxGeometry>
        </mxCell>
        <mxCell id="a5XRInmC_ehQdrehasMf-24" value="MyVOO WebAPi" style="shape=umlLifeline;perimeter=lifelinePerimeter;whiteSpace=wrap;html=1;container=1;collapsible=0;recursiveResize=0;outlineConnect=0;rounded=1;shadow=0;comic=0;labelBackgroundColor=none;strokeWidth=1;fontFamily=Verdana;fontSize=12;align=center;gradientColor=#ffffff;" parent="a5XRInmC_ehQdrehasMf-1" vertex="1">
          <mxGeometry x="745" y="80" width="100" height="910" as="geometry" />
        </mxCell>
        <mxCell id="a5XRInmC_ehQdrehasMf-26" value="" style="html=1;points=[];perimeter=orthogonalPerimeter;rounded=0;shadow=0;comic=0;labelBackgroundColor=none;strokeWidth=1;fontFamily=Verdana;fontSize=12;align=center;" parent="a5XRInmC_ehQdrehasMf-24" vertex="1">
          <mxGeometry x="45" y="561" width="10" height="41" as="geometry" />
        </mxCell>
        <mxCell id="a5XRInmC_ehQdrehasMf-27" value="LoggedIn" style="html=1;verticalAlign=bottom;endArrow=open;dashed=1;endSize=8;labelBackgroundColor=none;fontFamily=Verdana;fontSize=12;edgeStyle=elbowEdgeStyle;elbow=vertical;exitX=0.02;exitY=0.263;exitDx=0;exitDy=0;exitPerimeter=0;" parent="a5XRInmC_ehQdrehasMf-1" edge="1">
          <mxGeometry x="-0.3704" y="21" relative="1" as="geometry">
            <mxPoint x="138" y="529" as="targetPoint" />
            <Array as="points" />
            <mxPoint x="374.00000000000006" y="529.4300000000001" as="sourcePoint" />
            <mxPoint as="offset" />
          </mxGeometry>
        </mxCell>
        <mxCell id="jGMEOqAs3B6XIKQTMXMp-5" style="edgeStyle=orthogonalEdgeStyle;rounded=0;orthogonalLoop=1;jettySize=auto;html=1;entryX=-0.1;entryY=0.57;entryDx=0;entryDy=0;entryPerimeter=0;" edge="1" parent="a5XRInmC_ehQdrehasMf-1">
          <mxGeometry relative="1" as="geometry">
            <mxPoint x="389" y="509" as="sourcePoint" />
            <mxPoint x="546" y="509.79999999999995" as="targetPoint" />
            <Array as="points">
              <mxPoint x="468" y="509" />
              <mxPoint x="468" y="510" />
            </Array>
          </mxGeometry>
        </mxCell>
        <mxCell id="jGMEOqAs3B6XIKQTMXMp-6" value="register" style="edgeLabel;html=1;align=center;verticalAlign=middle;resizable=0;points=[];" vertex="1" connectable="0" parent="jGMEOqAs3B6XIKQTMXMp-5">
          <mxGeometry x="-0.2484" y="2" relative="1" as="geometry">
            <mxPoint x="12" y="-7" as="offset" />
          </mxGeometry>
        </mxCell>
        <mxCell id="a5XRInmC_ehQdrehasMf-28" value="" style="html=1;points=[];perimeter=orthogonalPerimeter;rounded=0;shadow=0;comic=0;labelBackgroundColor=none;strokeWidth=1;fontFamily=Verdana;fontSize=12;align=center;" parent="a5XRInmC_ehQdrehasMf-1" vertex="1">
          <mxGeometry x="379" y="432" width="10" height="78" as="geometry" />
        </mxCell>
        <mxCell id="a5XRInmC_ehQdrehasMf-29" value="Create&lt;br&gt;&amp;nbsp;account &amp;amp; login" style="html=1;verticalAlign=bottom;endArrow=block;labelBackgroundColor=none;fontFamily=Verdana;fontSize=12;elbow=vertical;edgeStyle=orthogonalEdgeStyle;curved=1;entryX=1;entryY=0.286;entryPerimeter=0;" parent="a5XRInmC_ehQdrehasMf-1" edge="1">
          <mxGeometry x="-0.2784" y="37" relative="1" as="geometry">
            <mxPoint x="393.38" y="438" as="sourcePoint" />
            <mxPoint x="392.9999999999999" y="475.9200000000001" as="targetPoint" />
            <Array as="points">
              <mxPoint x="443" y="437.9" />
              <mxPoint x="443" y="475.9" />
            </Array>
            <mxPoint as="offset" />
          </mxGeometry>
        </mxCell>
        <mxCell id="a5XRInmC_ehQdrehasMf-32" value="Get Individual using SAP 10" style="edgeStyle=orthogonalEdgeStyle;rounded=0;orthogonalLoop=1;jettySize=auto;html=1;fontSize=12;entryX=-0.2;entryY=0.039;entryDx=0;entryDy=0;entryPerimeter=0;" parent="a5XRInmC_ehQdrehasMf-1" target="a5XRInmC_ehQdrehasMf-26" edge="1">
          <mxGeometry relative="1" as="geometry">
            <mxPoint x="557" y="642" as="sourcePoint" />
            <mxPoint x="953" y="642" as="targetPoint" />
          </mxGeometry>
        </mxCell>
        <mxCell id="a5XRInmC_ehQdrehasMf-33" value="" style="html=1;points=[];perimeter=orthogonalPerimeter;rounded=0;shadow=0;comic=0;labelBackgroundColor=none;strokeWidth=1;fontFamily=Verdana;fontSize=12;align=center;" parent="a5XRInmC_ehQdrehasMf-1" vertex="1">
          <mxGeometry x="552" y="641" width="10" height="42" as="geometry" />
        </mxCell>
        <mxCell id="a5XRInmC_ehQdrehasMf-34" value="Individual" style="html=1;verticalAlign=bottom;endArrow=open;dashed=1;endSize=8;labelBackgroundColor=none;fontFamily=Helvetica;fontSize=11;edgeStyle=elbowEdgeStyle;elbow=vertical;" parent="a5XRInmC_ehQdrehasMf-1" edge="1">
          <mxGeometry x="-0.0372" y="18" relative="1" as="geometry">
            <mxPoint x="563" y="681" as="targetPoint" />
            <Array as="points" />
            <mxPoint x="790" y="681" as="sourcePoint" />
            <mxPoint as="offset" />
          </mxGeometry>
        </mxCell>
        <mxCell id="a5XRInmC_ehQdrehasMf-36" value="VOO.be/Email campain/..." style="shape=umlLifeline;perimeter=lifelinePerimeter;whiteSpace=wrap;html=1;container=1;collapsible=0;recursiveResize=0;outlineConnect=0;rounded=1;shadow=0;comic=0;labelBackgroundColor=none;strokeWidth=1;fontFamily=Verdana;fontSize=12;align=center;" parent="a5XRInmC_ehQdrehasMf-1" vertex="1">
          <mxGeometry x="194" y="81" width="110" height="939" as="geometry" />
        </mxCell>
        <mxCell id="a5XRInmC_ehQdrehasMf-37" value="" style="html=1;points=[];perimeter=orthogonalPerimeter;rounded=0;shadow=0;comic=0;labelBackgroundColor=none;strokeWidth=1;fontFamily=Verdana;fontSize=12;align=center;" parent="a5XRInmC_ehQdrehasMf-36" vertex="1">
          <mxGeometry x="49" y="99" width="10" height="41" as="geometry" />
        </mxCell>
        <mxCell id="a5XRInmC_ehQdrehasMf-38" value="Order" style="html=1;verticalAlign=bottom;endArrow=block;entryX=0;entryY=0;labelBackgroundColor=none;fontFamily=Verdana;fontSize=12;edgeStyle=elbowEdgeStyle;elbow=vertical;" parent="a5XRInmC_ehQdrehasMf-1" edge="1">
          <mxGeometry relative="1" as="geometry">
            <mxPoint x="139" y="180" as="sourcePoint" />
            <mxPoint x="241" y="180.00000000000057" as="targetPoint" />
          </mxGeometry>
        </mxCell>
        <mxCell id="YUQtsa73p3g_cmJX8-zG-0" value="Replicate Update" style="edgeStyle=orthogonalEdgeStyle;rounded=0;orthogonalLoop=1;jettySize=auto;html=1;" parent="a5XRInmC_ehQdrehasMf-1" edge="1">
          <mxGeometry relative="1" as="geometry">
            <mxPoint x="385" y="624" as="targetPoint" />
            <mxPoint x="548" y="624" as="sourcePoint" />
          </mxGeometry>
        </mxCell>
        <mxCell id="YUQtsa73p3g_cmJX8-zG-1" value="" style="html=1;points=[];perimeter=orthogonalPerimeter;rounded=0;shadow=0;comic=0;labelBackgroundColor=none;strokeWidth=1;fontFamily=Verdana;fontSize=12;align=center;" parent="a5XRInmC_ehQdrehasMf-1" vertex="1">
          <mxGeometry x="553" y="700" width="10" height="60" as="geometry" />
        </mxCell>
        <mxCell id="YUQtsa73p3g_cmJX8-zG-2" value="Enrich account" style="html=1;verticalAlign=bottom;endArrow=block;labelBackgroundColor=none;fontFamily=Verdana;fontSize=12;elbow=vertical;edgeStyle=orthogonalEdgeStyle;curved=1;entryX=1;entryY=0.286;entryPerimeter=0;" parent="a5XRInmC_ehQdrehasMf-1" edge="1">
          <mxGeometry x="0.1875" y="17" relative="1" as="geometry">
            <mxPoint x="563.3800000000001" y="706" as="sourcePoint" />
            <mxPoint x="563" y="743.9200000000001" as="targetPoint" />
            <Array as="points">
              <mxPoint x="613" y="705.9" />
              <mxPoint x="613" y="743.9" />
            </Array>
            <mxPoint as="offset" />
          </mxGeometry>
        </mxCell>
        <mxCell id="YUQtsa73p3g_cmJX8-zG-3" value="Replicate Update" style="edgeStyle=orthogonalEdgeStyle;rounded=0;orthogonalLoop=1;jettySize=auto;html=1;" parent="a5XRInmC_ehQdrehasMf-1" edge="1">
          <mxGeometry relative="1" as="geometry">
            <mxPoint x="388" y="758" as="targetPoint" />
            <mxPoint x="551" y="758" as="sourcePoint" />
          </mxGeometry>
        </mxCell>
        <mxCell id="YUQtsa73p3g_cmJX8-zG-4" value="" style="html=1;points=[];perimeter=orthogonalPerimeter;" parent="a5XRInmC_ehQdrehasMf-1" vertex="1">
          <mxGeometry x="789" y="307" width="10" height="113" as="geometry" />
        </mxCell>
        <mxCell id="W5-vrucpmB3BrDmm7iFh-0" value="Create JWT&amp;nbsp;&lt;br style=&quot;font-size: 11px;&quot;&gt;in auth&lt;br style=&quot;font-size: 11px;&quot;&gt;&amp;nbsp;cookie" style="html=1;verticalAlign=bottom;endArrow=block;labelBackgroundColor=none;fontFamily=Helvetica;fontSize=11;elbow=vertical;edgeStyle=orthogonalEdgeStyle;curved=1;entryX=1;entryY=0.286;entryPerimeter=0;" parent="a5XRInmC_ehQdrehasMf-1" edge="1">
          <mxGeometry x="0.2728" y="21" relative="1" as="geometry">
            <mxPoint x="808.3800000000001" y="373" as="sourcePoint" />
            <mxPoint x="808" y="410.9200000000001" as="targetPoint" />
            <Array as="points">
              <mxPoint x="858" y="372.9" />
              <mxPoint x="858" y="410.9" />
            </Array>
            <mxPoint x="12" y="-4" as="offset" />
          </mxGeometry>
        </mxCell>
        <mxCell id="W5-vrucpmB3BrDmm7iFh-1" value="" style="html=1;points=[];perimeter=orthogonalPerimeter;rounded=0;shadow=0;comic=0;labelBackgroundColor=none;strokeWidth=1;fontFamily=Verdana;fontSize=12;align=center;" parent="a5XRInmC_ehQdrehasMf-1" vertex="1">
          <mxGeometry x="796" y="371" width="10" height="40" as="geometry" />
        </mxCell>
        <mxCell id="vFgykMLxOgXp3sifyeLw-0" value="/oauth/token&lt;br&gt;?grant_type=password" style="edgeStyle=orthogonalEdgeStyle;rounded=0;orthogonalLoop=1;jettySize=auto;html=1;" parent="a5XRInmC_ehQdrehasMf-1" edge="1">
          <mxGeometry x="0.0643" y="41" relative="1" as="geometry">
            <Array as="points">
              <mxPoint x="909" y="322" />
            </Array>
            <mxPoint as="offset" />
            <mxPoint x="970" y="321" as="targetPoint" />
            <mxPoint x="799" y="321.4" as="sourcePoint" />
          </mxGeometry>
        </mxCell>
        <mxCell id="vFgykMLxOgXp3sifyeLw-2" value="Access&amp;amp;Refresh Tokens" style="html=1;verticalAlign=bottom;endArrow=open;dashed=1;endSize=8;labelBackgroundColor=none;fontFamily=Helvetica;fontSize=11;edgeStyle=elbowEdgeStyle;elbow=vertical;" parent="a5XRInmC_ehQdrehasMf-1" edge="1">
          <mxGeometry x="-0.0643" y="25" relative="1" as="geometry">
            <mxPoint x="799" y="355" as="targetPoint" />
            <Array as="points">
              <mxPoint x="898" y="355" />
              <mxPoint x="928" y="355" />
            </Array>
            <mxPoint x="970" y="355" as="sourcePoint" />
            <mxPoint as="offset" />
          </mxGeometry>
        </mxCell>
        <mxCell id="jGMEOqAs3B6XIKQTMXMp-0" value="&lt;b&gt;Login Screen&lt;/b&gt;" style="html=1;verticalAlign=bottom;endArrow=open;dashed=1;endSize=8;exitX=0.3;exitY=0.114;exitDx=0;exitDy=0;exitPerimeter=0;" edge="1" parent="a5XRInmC_ehQdrehasMf-1" source="a5XRInmC_ehQdrehasMf-6" target="a5XRInmC_ehQdrehasMf-3">
          <mxGeometry relative="1" as="geometry">
            <mxPoint x="542" y="230" as="sourcePoint" />
            <mxPoint x="400" y="230" as="targetPoint" />
          </mxGeometry>
        </mxCell>
        <mxCell id="jGMEOqAs3B6XIKQTMXMp-2" value="Request Login Screen" style="html=1;verticalAlign=bottom;endArrow=block;" edge="1" parent="a5XRInmC_ehQdrehasMf-1" target="a5XRInmC_ehQdrehasMf-6">
          <mxGeometry width="80" relative="1" as="geometry">
            <mxPoint x="383" y="180" as="sourcePoint" />
            <mxPoint x="530" y="180" as="targetPoint" />
          </mxGeometry>
        </mxCell>
        <mxCell id="jGMEOqAs3B6XIKQTMXMp-4" value="&lt;span lang=&quot;fr&quot;&gt;onBeforeSubmit()&lt;br&gt;&lt;/span&gt;" style="text;html=1;align=center;verticalAlign=middle;resizable=0;points=[];autosize=1;" vertex="1" parent="a5XRInmC_ehQdrehasMf-1">
          <mxGeometry x="413.5" y="220" width="110" height="20" as="geometry" />
        </mxCell>
      </root>
    </mxGraphModel>
  </diagram>
</mxfile>
